<svg width="526" height="322" viewBox="0 0 526 322" xmlns="http://www.w3.org/2000/svg" xmlns:xlink="http://www.w3.org/1999/xlink"><defs><path d="M158.805 107.409c0 59.023 106.653 144.951 106.653 144.951s106.644-85.928 106.644-144.951C372.102 48.391 324.356.546 265.458.546c-58.902 0-106.653 47.845-106.653 106.863z" id="path-1"/><path d="M223.772 76.062l-15.461 23.637c.262 4.835 4.274 8.39 9.192 8.39 4.96 0 9.003-3.472 9.197-8.369 0 0 .01-.414.01-.372 0 .126-.005.246-.01.372h4.64v-.366c0-.053-.005-.11-.005-.163 0-.016.006.063.006.163.083 5.012 4.169 8.736 9.202 8.736 5.002 0 9.072-3.53 9.203-8.49 0-.12.005-.278.005-.252 0 .084 0 .168-.005.252v.12h4.635v-.529.163c.089 5.012 4.174 8.736 9.197 8.736 5.007 0 9.077-3.53 9.208-8.49.005-.12.005-.278.005-.252 0 .084 0 .168-.005.252v.12h4.64s-.005-.21-.005-.366v-.163.163c.09 5.012 4.175 8.736 9.203 8.736 5.002 0 9.077-3.53 9.207-8.49v-.252.252c-.005.063-.005.12-.005.12h4.64s0-.21-.004-.366v-.163.163c.089 5.012 4.174 8.736 9.207 8.736 4.96 0 9.009-3.478 9.198-8.386l-13.775-23.642h-81.32zm-15.477 23.13c0 .052 0 .11.005.162-.005-.09-.005-.168-.005-.168v.005zm110.577.408v-.252.252zm-110.572.11l.01-.01c-.004-.116-.01-.231-.01-.346v.356zm110.567-.006l.005.006v-.11c0 .036-.005.073-.005.104zm.005.016v-.01.01zm-110.577 0h.005v-.01l-.005.01z" id="path-3"/><path d="M223.772 73.333c-.916 0-1.765.655-2.273 1.409l-14.587 21.95c-.806.472-1.456 1.4-1.456 2.4 0 .089-.1.23-.1.314v.11c0 .173.106.35.137.529.456 6.149 5.573 10.8 11.952 10.8 5.63 0 10.245-3.845 11.586-8.396h.031c1.414 4.551 5.992 8.443 11.481 8.443 5.625 0 10.187-3.892 11.533-8.443h.027c1.414 4.551 5.991 8.443 11.475 8.443 5.636 0 10.193-3.892 11.539-8.443h.026c1.414 4.551 5.992 8.443 11.48 8.443 5.631 0 10.193-3.892 11.54-8.443h.02c1.42 4.551 5.997 8.396 11.486 8.396 6.516 0 11.607-4.698 11.921-10.926.01-.115.01-.246.01-.366v-.257c0-.86-.397-1.634-1.02-2.132l-13.142-22.296c-.492-.828-1.388-1.535-2.346-1.535h-81.32zm0 2.729h81.665-.345l13.78 23.36c-.178 4.928-4.232 8.547-9.203 8.547-4.98 0-8.825-3.624-8.993-8.558 0 .005-.005.01-.005.016.005.12-.204.293-.204.293h-4.845c-.225 4.866-4.153 8.349-9.098 8.349-4.892 0-8.935-3.546-9.228-8.349h-4.573c-.22 4.866-4.227 8.349-9.166 8.349-4.96 0-8.935-3.645-9.129-8.548-.016.1-.047.2-.047.2h-4.442v-.43s-.1.262-.1.324c-.172 4.924-4.273 8.454-9.254 8.454-5.007 0-8.904-3.719-9.02-8.705v-.005c-.015.02-.025.036-.025.052 0 .126-.2.31-.2.31h-4.855c-.225 4.87-4.148 8.348-9.092 8.348-4.924 0-8.894-3.797-9.14-8.653l.042-.062v-.215.215l15.477-23.292zm95.1 23.229v.298-.298zm0 .298v.032-.032zm0 .032v.01-.01zm-18.201-.288c.005.026.005.052.005.078.021-.078.21-.194.21-.267v-.005s-.215.073-.215.194zm-23.438-.189c0 .026.01.058.026.094-.01-.057-.026-.1-.026-.1v.006zm-22.81.22c0 .052 0 .105.005.157.005-.037.005-.073.005-.11-.005-.073.053-.199.053-.267v-.005s-.063.11-.063.225zm-22.857-.005c.052-.074.173-.163.173-.215v-.005s-.168.105-.173.22zm45.714.005c0 .12.005.236.016.356h.13s-.094-.183-.1-.309c0-.047-.036-.11-.067-.173.01.037.016.084.02.126zm18.148.225v.131h.194c0-.042 0-.084.005-.13 0-.085-.199-.3-.199-.3v.3zm-22.747 0v.131h.042c.005-.042.005-.084.005-.13 0-.085-.047-.3-.047-.3v.3zm-46.4.026v.105h.204v-.105c0-.062-.204-.324-.204-.324v.324zm-17.986-.261v.01-.01zm.005.267l.006-.01c-.006-.08-.006-.163-.01-.247 0 .115.004.23.004.257zm-.005.01h.005v-.01l-.005.01z" id="path-5"/><path d="M410.148 205.845s3.137 2.226 4.866 5.185c.832 1.43 3.016 1.545 4.242.644 1.43-1.063 1.477-2.823.64-4.247-1.97-3.368-8.046-8.91-8.046-8.91-.545 4.777-1.702 7.328-1.702 7.328z" id="path-7"/><path d="M409.305 172.403c-.34.01-.697.078-1.058.23-.54.173-1.053.44-1.504.775-4.164 2.294-7.977 5.133-11.522 8.297-2.933 2.608 1.372 6.887 4.29 4.295a61.365 61.365 0 0 1 4.797-3.86c-.55 3.697-1.095 7.39-1.64 11.082-.298 2.006.273 3.98 1.85 5.075-.718 4.033-1.88 8.03-3.62 11.638-1.692 3.515 3.536 6.6 5.233 3.07 2.33-4.835 3.807-10.088 4.614-15.41.498-.528.859-1.183.974-1.937.55-3.74 1.1-7.485 1.66-11.22a72.192 72.192 0 0 1 1.85 3.159c1.911 3.42 7.149.356 5.237-3.07-1.927-3.446-4.07-6.714-6.636-9.715-.534-1.084-1.467-1.933-2.85-2.305a4.21 4.21 0 0 0-1.094-.141c-.194 0-.388.016-.581.037z" id="path-9"/><path d="M404.475 165.767a5.288 5.288 0 0 0 5.285 5.29 5.288 5.288 0 0 0 5.285-5.29 5.292 5.292 0 0 0-5.285-5.296 5.292 5.292 0 0 0-5.285 5.296z" id="path-11"/><path d="M105.318 202.875c-.833 1.425-.79 3.19.64 4.248 1.225.9 3.404.785 4.236-.644 1.734-2.954 4.871-5.18 4.871-5.18s-1.152-2.551-1.702-7.333c0 0-6.08 5.547-8.045 8.91z" id="path-13"/><path d="M114.238 167.956c-1.388.372-2.32 1.22-2.855 2.304-2.566 3.002-4.714 6.27-6.636 9.721-1.911 3.42 3.32 6.485 5.238 3.064a75.419 75.419 0 0 1 1.849-3.158c.555 3.74 1.105 7.48 1.66 11.22.11.759.471 1.408.98 1.942.8 5.322 2.273 10.575 4.603 15.41 1.703 3.524 6.925.44 5.238-3.07-1.739-3.609-2.907-7.61-3.62-11.638 1.572-1.1 2.143-3.08 1.844-5.075-.539-3.693-1.084-7.39-1.634-11.083a60.894 60.894 0 0 1 4.798 3.86c2.917 2.593 7.223-1.686 4.29-4.295-3.546-3.168-7.36-6.007-11.523-8.296a5.332 5.332 0 0 0-1.503-.78 3.087 3.087 0 0 0-1.064-.23 5.382 5.382 0 0 0-.576-.032 4.14 4.14 0 0 0-1.09.136z" id="path-15"/><path d="M110.168 161.215c0 2.923 2.368 5.295 5.28 5.295a5.292 5.292 0 0 0 5.284-5.295 5.292 5.292 0 0 0-5.284-5.295c-2.912 0-5.28 2.372-5.28 5.295z" id="path-17"/><path d="M438.352 270.446s3.133 2.226 4.866 5.18c.838 1.43 3.017 1.545 4.243.639 1.43-1.053 1.471-2.818.639-4.243-1.964-3.368-8.045-8.909-8.045-8.909-.55 4.782-1.703 7.333-1.703 7.333z" id="path-19"/><path d="M437.514 236.998c-.345.01-.701.084-1.063.23a5.332 5.332 0 0 0-1.503.781c-4.17 2.284-7.977 5.128-11.528 8.297-2.928 2.608 1.377 6.887 4.29 4.294a59.797 59.797 0 0 1 4.802-3.86c-.55 3.693-1.094 7.39-1.644 11.083-.288 1.996.283 3.975 1.849 5.075-.713 4.033-1.875 8.03-3.614 11.638-1.687 3.515 3.535 6.594 5.237 3.07 2.331-4.835 3.803-10.088 4.604-15.41.503-.534.87-1.188.98-1.943.555-3.74 1.105-7.479 1.655-11.224a73.392 73.392 0 0 1 1.854 3.164c1.912 3.425 7.144.356 5.238-3.064-1.923-3.452-4.07-6.715-6.637-9.721-.534-1.085-1.466-1.933-2.854-2.305a4.14 4.14 0 0 0-1.09-.136c-.193 0-.387.01-.576.031z" id="path-21"/><path d="M432.685 230.362c0 2.923 2.368 5.295 5.28 5.295a5.292 5.292 0 0 0 5.285-5.295 5.283 5.283 0 0 0-10.564 0z" id="path-23"/><path d="M206.305 268.387c-.833 1.42-.791 3.185.644 4.243 1.226.9 3.404.785 4.237-.644 1.734-2.954 4.871-5.18 4.871-5.18s-1.157-2.551-1.702-7.328c0 0-6.076 5.536-8.05 8.91z" id="path-25"/><path d="M215.224 233.463c-1.382.372-2.32 1.225-2.849 2.304-2.572 3.007-4.714 6.27-6.636 9.721-1.912 3.426 3.326 6.49 5.232 3.064a86.133 86.133 0 0 1 1.855-3.163c.55 3.745 1.11 7.49 1.66 11.224.115.754.471 1.41.974 1.938.801 5.327 2.284 10.58 4.604 15.414 1.702 3.525 6.935.446 5.238-3.069-1.74-3.609-2.897-7.605-3.614-11.638 1.571-1.1 2.142-3.074 1.849-5.075-.545-3.693-1.095-7.385-1.64-11.083a59.948 59.948 0 0 1 4.798 3.86c2.917 2.593 7.223-1.686 4.29-4.3-3.552-3.163-7.36-6.002-11.529-8.291a5.07 5.07 0 0 0-1.503-.78 2.884 2.884 0 0 0-1.053-.226 4.445 4.445 0 0 0-1.676.1z" id="path-27"/><path d="M211.16 226.722c0 2.923 2.362 5.295 5.28 5.295a5.289 5.289 0 0 0 5.284-5.295 5.283 5.283 0 0 0-10.564 0z" id="path-29"/><path d="M354.65 221.312s3.132 2.23 4.866 5.185c.838 1.43 3.011 1.545 4.237.644 1.435-1.063 1.477-2.823.644-4.248-1.97-3.367-8.05-8.904-8.05-8.904-.545 4.772-1.697 7.323-1.697 7.323z" id="path-31"/><path d="M353.801 187.87c-.335.01-.696.083-1.052.23a4.95 4.95 0 0 0-1.503.78c-4.17 2.29-7.977 5.128-11.528 8.291-2.934 2.609 1.377 6.888 4.29 4.3a60.661 60.661 0 0 1 4.797-3.86c-.545 3.693-1.09 7.385-1.64 11.083-.293 2 .278 3.975 1.85 5.07-.718 4.038-1.876 8.03-3.615 11.643-1.686 3.51 3.536 6.595 5.238 3.064 2.32-4.829 3.802-10.087 4.604-15.409.503-.529.864-1.183.974-1.943.555-3.734 1.11-7.474 1.66-11.219a81.962 81.962 0 0 1 1.854 3.164c1.912 3.425 7.145.361 5.238-3.07-1.927-3.446-4.07-6.714-6.641-9.715-.53-1.08-1.462-1.928-2.85-2.305a4.25 4.25 0 0 0-1.1-.141c-.188 0-.382.01-.576.036z" id="path-33"/><path d="M348.978 181.233a5.288 5.288 0 0 0 5.284 5.29 5.288 5.288 0 0 0 5.285-5.29 5.289 5.289 0 0 0-5.285-5.295 5.289 5.289 0 0 0-5.284 5.295z" id="path-35"/><path d="M168.096 222.893c-.832 1.425-.79 3.185.64 4.248 1.225.9 3.404.786 4.237-.644 1.733-2.954 4.865-5.185 4.865-5.185s-1.147-2.551-1.702-7.323c0 0-6.076 5.537-8.04 8.904z" id="path-37"/><path d="M177.016 187.974c-1.388.377-2.32 1.226-2.855 2.305-2.566 3-4.713 6.27-6.636 9.715-1.911 3.431 3.326 6.495 5.233 3.07a70.437 70.437 0 0 1 1.86-3.164c.55 3.745 1.099 7.485 1.654 11.22.11.759.472 1.413.98 1.942.801 5.322 2.278 10.58 4.604 15.41 1.697 3.53 6.924.445 5.237-3.065-1.739-3.614-2.901-7.605-3.619-11.643 1.571-1.095 2.142-3.07 1.849-5.07-.55-3.698-1.09-7.39-1.645-11.083a58.886 58.886 0 0 1 4.803 3.86c2.917 2.588 7.218-1.691 4.29-4.3-3.546-3.163-7.354-6.002-11.523-8.29a5.074 5.074 0 0 0-1.503-.781 3.087 3.087 0 0 0-1.063-.23 4.179 4.179 0 0 0-.571-.037c-.377 0-.75.047-1.095.141z" id="path-39"/><path d="M172.941 181.233a5.291 5.291 0 0 0 5.285 5.29 5.288 5.288 0 0 0 5.285-5.29 5.289 5.289 0 0 0-5.285-5.295 5.292 5.292 0 0 0-5.285 5.295z" id="path-41"/><path d="M378.303 285.912s3.137 2.226 4.866 5.186c.838 1.424 3.011 1.54 4.242.639 1.43-1.058 1.472-2.823.64-4.248-1.965-3.363-8.046-8.91-8.046-8.91-.55 4.783-1.702 7.333-1.702 7.333z" id="path-43"/><path d="M377.465 252.465c-.346.01-.702.084-1.063.23a5.148 5.148 0 0 0-1.503.786c-4.17 2.284-7.977 5.122-11.528 8.291-2.928 2.609 1.377 6.888 4.294 4.295a60.894 60.894 0 0 1 4.798-3.86c-.55 3.692-1.09 7.39-1.64 11.088-.293 1.996.278 3.97 1.85 5.07-.718 4.028-1.88 8.03-3.62 11.638-1.686 3.51 3.536 6.594 5.238 3.07 2.326-4.835 3.803-10.088 4.604-15.41.503-.534.87-1.184.98-1.943.555-3.74 1.105-7.48 1.654-11.219a75.613 75.613 0 0 1 1.86 3.158c1.906 3.42 7.139.356 5.232-3.064-1.922-3.451-4.07-6.72-6.636-9.72-.534-1.08-1.466-1.933-2.854-2.305a4.14 4.14 0 0 0-1.09-.136c-.194 0-.387.01-.576.031z" id="path-45"/><path d="M372.636 245.829a5.292 5.292 0 0 0 5.285 5.295c2.912 0 5.285-2.373 5.285-5.295 0-2.923-2.373-5.295-5.285-5.295a5.292 5.292 0 0 0-5.285 5.295z" id="path-47"/><path d="M152.624 287.489c-.832 1.425-.785 3.19.645 4.248 1.225.9 3.404.785 4.242-.64 1.728-2.959 4.86-5.185 4.86-5.185s-1.146-2.55-1.702-7.332c0 0-6.075 5.546-8.045 8.909z" id="path-49"/><path d="M161.55 252.57c-1.394.372-2.326 1.225-2.855 2.304-2.567 3.001-4.714 6.27-6.642 9.721-1.906 3.42 3.332 6.484 5.238 3.064a75.613 75.613 0 0 1 1.86-3.158c.55 3.74 1.1 7.48 1.655 11.219.11.76.476 1.409.974 1.943.806 5.322 2.283 10.575 4.609 15.41 1.697 3.524 6.924.44 5.232-3.07-1.739-3.609-2.896-7.61-3.614-11.638 1.577-1.1 2.142-3.074 1.85-5.07-.55-3.698-1.09-7.396-1.64-11.088a60.894 60.894 0 0 1 4.797 3.86c2.918 2.593 7.218-1.686 4.295-4.295-3.556-3.169-7.359-6.007-11.533-8.29a5.12 5.12 0 0 0-1.498-.787 3.085 3.085 0 0 0-1.058-.23 5.554 5.554 0 0 0-.581-.031 4.14 4.14 0 0 0-1.09.136z" id="path-51"/><path d="M157.474 245.829a5.292 5.292 0 0 0 5.285 5.295 5.292 5.292 0 0 0 5.285-5.295 5.292 5.292 0 0 0-5.285-5.295 5.292 5.292 0 0 0-5.285 5.295z" id="path-53"/><path d="M314.619 266.806s3.132 2.226 4.86 5.18c.838 1.43 3.017 1.545 4.243.644 1.43-1.058 1.477-2.823.644-4.243-1.97-3.373-8.05-8.909-8.05-8.909-.55 4.777-1.697 7.328-1.697 7.328z" id="path-55"/><path d="M313.776 233.363a2.96 2.96 0 0 0-1.064.226 5.268 5.268 0 0 0-1.503.78c-4.169 2.289-7.972 5.128-11.528 8.291-2.922 2.614 1.378 6.893 4.295 4.3a60.024 60.024 0 0 1 4.803-3.86c-.555 3.698-1.095 7.39-1.645 11.083-.293 2 .278 3.975 1.85 5.075-.718 4.033-1.881 8.03-3.62 11.638-1.687 3.515 3.54 6.594 5.238 3.07 2.33-4.835 3.802-10.088 4.609-15.415.497-.529.864-1.184.974-1.938.555-3.734 1.105-7.48 1.655-11.224a73.496 73.496 0 0 1 1.86 3.163c1.906 3.426 7.143.362 5.232-3.064-1.923-3.451-4.07-6.714-6.636-9.72-.53-1.08-1.467-1.933-2.855-2.305a4.372 4.372 0 0 0-1.665-.1z" id="path-57"/><path d="M308.946 226.722a5.292 5.292 0 0 0 5.285 5.295 5.292 5.292 0 0 0 5.285-5.295 5.288 5.288 0 0 0-5.285-5.29 5.288 5.288 0 0 0-5.285 5.29z" id="path-59"/><path d="M79.837 272.022c-.833 1.425-.786 3.19.644 4.243 1.226.906 3.405.79 4.243-.64 1.728-2.953 4.866-5.18 4.866-5.18s-1.153-2.55-1.703-7.332c0 0-6.075 5.541-8.05 8.91z" id="path-61"/><path d="M88.762 237.103c-1.388.372-2.325 1.22-2.854 2.305-2.567 3.006-4.71 6.269-6.642 9.72-1.906 3.42 3.331 6.49 5.238 3.065a86.247 86.247 0 0 1 1.86-3.164c.55 3.745 1.1 7.485 1.654 11.224.11.755.477 1.41.974 1.943.807 5.322 2.284 10.575 4.61 15.41 1.697 3.524 6.924.445 5.232-3.07-1.739-3.608-2.896-7.605-3.614-11.638 1.577-1.1 2.147-3.08 1.849-5.075-.55-3.692-1.09-7.39-1.64-11.083a58.811 58.811 0 0 1 4.798 3.86c2.918 2.593 7.223-1.686 4.295-4.294-3.556-3.17-7.359-6.013-11.533-8.297a5.233 5.233 0 0 0-1.498-.78 3.085 3.085 0 0 0-1.058-.23 5.405 5.405 0 0 0-.582-.032 4.14 4.14 0 0 0-1.089.136z" id="path-63"/><path d="M84.687 230.362a5.292 5.292 0 0 0 5.285 5.295 5.292 5.292 0 0 0 5.285-5.295 5.284 5.284 0 1 0-10.57 0z" id="path-65"/></defs><g id="assets" fill="none" fill-rule="evenodd"><g id="reservas-online-sin-comisiones-restaurantes"><path id="Fill-1" fill="#FFF" d="M5.124 303.692l106.282 14.288 51.606-123.152-65.124-8.092z"/><path d="M0 305.757l107.136 15.346 59.792-128.542-70.22-8.726L0 305.757zm10.245-4.128L99.07 189.633l60.039 7.459-49.412 117.904-99.452-13.367z" id="Fill-2" fill="#4990E2"/><path id="Fill-3" fill="#FFF" d="M376.034 200.718l45.986 116.348 98.143-7.908L427.4 192.207z"/><path d="M372.254 198.578l53.921 121.57 99.305-8.679-96.938-122.22-56.288 9.329zm7.563 4.279l46.442-7.694 88.589 111.687-91.03 7.333-44.001-111.326z" id="Fill-4" fill="#4990E2"/><path id="Fill-5" fill="#FFF" d="M163.015 194.83l-51.607 123.147 153.997-13.843V179.678z"/><path d="M161.096 192.355l-53.958 128.752 160.994-14.477V176.517l-107.036 15.838zm3.84 4.95l97.739-14.461v118.794l-147 13.215 49.26-117.548z" id="Fill-6" fill="#4990E2"/><path id="Fill-7" fill="#FFF" d="M265.405 304.135l156.615 12.932-45.986-116.349-110.63-21.04z"/><path d="M262.675 306.648l163.503 13.502-48.16-121.832-115.343-21.935v130.265zm5.458-5.023V182.977l105.915 20.139 43.823 110.87-149.738-12.361z" id="Fill-8" fill="#4990E2"/><mask id="mask-2" fill="#fff"><use xlink:href="#path-1"/></mask><path id="Fill-9" fill="#4990E2" mask="url(#mask-2)" d="M154.258 256.906h222.395V-4H154.258z"/><path d="M222.64 167.045h81.886V63.324H222.64v103.72zm56.41-8.187h15.467v-36.39H279.05v36.39zm-46.4-10.915h37.308v-25.476H232.65v25.476z" id="Fill-12" fill="#FEFEFE" mask="url(#mask-2)"/><mask id="mask-4" fill="#fff"><use xlink:href="#path-3"/></mask><path id="Fill-13" fill="#FEFEFE" mask="url(#mask-4)" d="M203.744 112.641h119.674V71.516H203.744z"/><mask id="mask-6" fill="#fff"><use xlink:href="#path-5"/></mask><path id="Fill-16" fill="#4990E2" mask="url(#mask-6)" d="M200.805 115.438h125.347V68.787H200.805z"/><mask id="mask-8" fill="#fff"><use xlink:href="#path-7"/></mask><path id="Fill-19" fill="#101111" mask="url(#mask-8)" d="M405.596 216.802h19.395v-22.83h-19.395z"/><mask id="mask-10" fill="#fff"><use xlink:href="#path-9"/></mask><path id="Fill-22" fill="#101111" mask="url(#mask-10)" d="M389.69 219.117h35.736V167.82H389.69z"/><mask id="mask-12" fill="#fff"><use xlink:href="#path-11"/></mask><path id="Fill-25" fill="#101111" mask="url(#mask-12)" d="M399.93 175.608h19.667V155.92h-19.668z"/><mask id="mask-14" fill="#fff"><use xlink:href="#path-13"/></mask><path id="Fill-28" fill="#101111" mask="url(#mask-14)" d="M100.217 212.25h19.395v-22.83h-19.395z"/><mask id="mask-16" fill="#fff"><use xlink:href="#path-15"/></mask><path id="Fill-31" fill="#101111" mask="url(#mask-16)" d="M99.782 214.566h35.736v-51.298H99.782z"/><mask id="mask-18" fill="#fff"><use xlink:href="#path-17"/></mask><path id="Fill-34" fill="#101111" mask="url(#mask-18)" d="M105.617 171.057h19.667v-19.689h-19.667z"/><mask id="mask-20" fill="#fff"><use xlink:href="#path-19"/></mask><path id="Fill-37" fill="#101111" mask="url(#mask-20)" d="M433.806 281.398h19.395v-22.831h-19.395z"/><mask id="mask-22" fill="#fff"><use xlink:href="#path-21"/></mask><path id="Fill-40" fill="#101111" mask="url(#mask-22)" d="M417.894 283.713h35.737v-51.298h-35.737z"/><mask id="mask-24" fill="#fff"><use xlink:href="#path-23"/></mask><path id="Fill-43" fill="#101111" mask="url(#mask-24)" d="M428.134 240.204H447.8V220.52h-19.667z"/><mask id="mask-26" fill="#fff"><use xlink:href="#path-25"/></mask><path id="Fill-46" fill="#101111" mask="url(#mask-26)" d="M201.209 277.757h19.394v-22.83H201.21z"/><mask id="mask-28" fill="#fff"><use xlink:href="#path-27"/></mask><path id="Fill-49" fill="#101111" mask="url(#mask-28)" d="M200.774 280.072h35.736v-51.297h-35.736z"/><mask id="mask-30" fill="#fff"><use xlink:href="#path-29"/></mask><path id="Fill-52" fill="#101111" mask="url(#mask-30)" d="M206.609 236.569h19.667V216.88h-19.667z"/><mask id="mask-32" fill="#fff"><use xlink:href="#path-31"/></mask><path id="Fill-55" fill="#101111" mask="url(#mask-32)" d="M350.098 232.269h19.395v-22.831h-19.395z"/><mask id="mask-34" fill="#fff"><use xlink:href="#path-33"/></mask><path id="Fill-58" fill="#101111" mask="url(#mask-34)" d="M334.187 234.584h35.736v-51.298h-35.736z"/><mask id="mask-36" fill="#fff"><use xlink:href="#path-35"/></mask><path id="Fill-61" fill="#101111" mask="url(#mask-36)" d="M344.431 191.07H364.1v-19.683H344.43z"/><mask id="mask-38" fill="#fff"><use xlink:href="#path-37"/></mask><path id="Fill-64" fill="#101111" mask="url(#mask-38)" d="M162.995 232.263h19.395v-22.83h-19.395z"/><mask id="mask-40" fill="#fff"><use xlink:href="#path-39"/></mask><path id="Fill-67" fill="#101111" mask="url(#mask-40)" d="M162.56 234.578h35.736v-51.297H162.56z"/><mask id="mask-42" fill="#fff"><use xlink:href="#path-41"/></mask><path id="Fill-70" fill="#101111" mask="url(#mask-42)" d="M168.395 191.075h19.667v-19.683h-19.667z"/><mask id="mask-44" fill="#fff"><use xlink:href="#path-43"/></mask><path id="Fill-73" fill="#101111" mask="url(#mask-44)" d="M373.757 296.864h19.395v-22.83h-19.395z"/><mask id="mask-46" fill="#fff"><use xlink:href="#path-45"/></mask><path id="Fill-76" fill="#101111" mask="url(#mask-46)" d="M357.845 299.185h35.736v-51.298h-35.736z"/><mask id="mask-48" fill="#fff"><use xlink:href="#path-47"/></mask><path id="Fill-79" fill="#101111" mask="url(#mask-48)" d="M368.084 255.676h19.668v-19.689h-19.668z"/><mask id="mask-50" fill="#fff"><use xlink:href="#path-49"/></mask><path id="Fill-82" fill="#101111" mask="url(#mask-50)" d="M147.528 296.864h19.395v-22.83h-19.395z"/><mask id="mask-52" fill="#fff"><use xlink:href="#path-51"/></mask><path id="Fill-85" fill="#101111" mask="url(#mask-52)" d="M147.093 299.18h35.737v-51.298h-35.737z"/><mask id="mask-54" fill="#fff"><use xlink:href="#path-53"/></mask><path id="Fill-88" fill="#101111" mask="url(#mask-54)" d="M152.928 255.676h19.667v-19.689h-19.667z"/><mask id="mask-56" fill="#fff"><use xlink:href="#path-55"/></mask><path id="Fill-91" fill="#101111" mask="url(#mask-56)" d="M310.067 277.757h19.395v-22.83h-19.395z"/><mask id="mask-58" fill="#fff"><use xlink:href="#path-57"/></mask><path id="Fill-94" fill="#101111" mask="url(#mask-58)" d="M294.155 280.072h35.737v-51.297h-35.737z"/><mask id="mask-60" fill="#fff"><use xlink:href="#path-59"/></mask><path id="Fill-97" fill="#101111" mask="url(#mask-60)" d="M304.395 236.569h19.667V216.88h-19.667z"/><mask id="mask-62" fill="#fff"><use xlink:href="#path-61"/></mask><path id="Fill-100" fill="#101111" mask="url(#mask-62)" d="M74.74 281.398h19.396v-22.831H74.74z"/><mask id="mask-64" fill="#fff"><use xlink:href="#path-63"/></mask><path id="Fill-103" fill="#101111" mask="url(#mask-64)" d="M74.311 283.713h35.737v-51.298H74.31z"/><mask id="mask-66" fill="#fff"><use xlink:href="#path-65"/></mask><path id="Fill-106" fill="#101111" mask="url(#mask-66)" d="M80.14 240.204h19.668V220.52H80.141z"/></g></g></svg>